<?xml version="1.0" encoding="utf-8"?>
<!-- Svg Vector Icons : http://www.onlinewebfonts.com/icon -->
<!DOCTYPE svg PUBLIC "-//W3C//DTD SVG 1.1//EN" "http://www.w3.org/Graphics/SVG/1.1/DTD/svg11.dtd">
<svg version="1.1" xmlns="http://www.w3.org/2000/svg" xmlns:xlink="http://www.w3.org/1999/xlink" x="0px" y="0px" viewBox="0 0 1000 1000" enable-background="new 0 0 1000 1000" xml:space="preserve">
<metadata> Svg Vector Icons : http://www.onlinewebfonts.com/icon </metadata>
<g><g transform="translate(0.000000,511.000000) scale(0.100000,-0.100000)"><path d="M7853.6,4988.5c-739.5-46.9-1410.9-230.1-1831.1-502.4c-279.4-180.8-908.5-871-1706.7-1871l-333.4-417.9l-140.9,18.8c-77.5,9.4-272.3,16.4-434.3,16.4c-392.1-2.4-575.2-61-809.9-265.3C2259.3,1671.3,1294.5,753.5,1282.7,715.9c-25.8-77.5,32.9-180.7,115-206.6c39.9-14.1,382.7-86.9,760.6-164.3c378-75.1,692.5-143.2,701.9-152.6c7-7-9.4-91.5-35.2-187.8c-68.1-232.4-68.1-326.3,4.7-382.6l56.3-44.6l-556.4-314.6c-305.2-173.7-617.4-352.1-694.9-396.7l-140.9-84.5l363.9-11.7l363.9-11.7l-922.6-767.7c-509.4-424.9-915.6-770-903.8-770c9.4,0,319.3,63.4,687.8,140.9c366.2,77.5,683.1,138.5,699.6,136.1c23.5-4.7-788.8-1401.5-1293.5-2223.2c-30.5-51.6-37.6-72.8-14.1-61c18.8,11.7,617.4,516.5,1333.4,1122.1c894.4,758.3,1305.3,1094,1317,1072.8c9.4-16.4,25.8-157.3,35.2-316.9c28.2-511.8-18.8-547,523.5,382.6l478.9,819.3l65.7-68.1c79.8-79.8,122.1-79.8,363.9-9.4c103.3,30.5,194.8,49.3,204.2,39.9c7-7,82.2-345.1,162-751.2c159.6-800.5,169-824,312.2-824c72.8,0,115,37.6,523.5,476.6c906.2,967.2,932,1000.1,1004.8,1274.7c44.6,162,51.7,612.7,11.7,807.6c-21.1,110.3-18.8,133.8,14.1,157.3c21.1,16.4,246.5,197.2,500,401.4c1126.8,915.6,1633.9,1392.1,1807.6,1704.3c314.6,556.4,469.5,1317,471.8,2293.6c0,528.2-56.3,727.7-270,939C9076.7,4993.2,8762.1,5047.2,7853.6,4988.5z M8910,4307.7c72.8-79.8,77.5-93.9,91.5-328.7c18.8-286.4-14.1-887.4-65.7-1185.5c-82.2-476.6-216-845.1-396.8-1098.7C8313.7,1377.9,7139.9,389.6,5395.7-957.9c-232.4-178.4-422.6-319.3-427.3-314.6c-2.3,4.7-32.9,61-65.7,126.8C4623.3-589.4,4029.4,2.2,3447.2,307.4l-129.1,68.1l225.4,295.8C4548.2,1981.2,5553,3206.7,6010.7,3683.2c232.4,239.5,410.8,363.9,671.4,464.8c467.2,183.1,948.4,253.5,1662.1,248.9l490.7-4.7L8910,4307.7z M3365,9.3c483.6-258.2,941.4-711.3,1223.1-1209c133.8-234.8,133.8-234.8-18.8-277c-72.8-21.1-136.2-35.2-138.5-30.5c-2.4,2.3-30.5,70.4-58.7,150.2c-108,293.4-385,655-666.7,868.6c-145.6,110.3-535.3,314.6-598.6,314.6c-21.1,0-28.2,14.1-18.8,37.5c9.4,21.1,25.8,84.5,39.9,140.9c14.1,56.3,32.9,103.3,39.9,103.3C3172.5,107.9,3261.7,63.3,3365,9.3z M3449.5-662.1c171.4-117.4,439-401.5,542.3-577.5l79.8-133.8L3759.4-1688c-173.7-173.7-319.3-312.2-321.6-307.5c-4.7,4.7,0,51.7,14.1,105.6c11.7,51.7,16.4,96.3,11.7,96.3c-7,0-169-105.6-363.9-237.1c-194.8-129.1-356.8-232.4-359.2-227.7c-4.7,4.7,42.3,145.5,103.3,312.2c61,169,108,309.9,105.6,312.2c-7,9.4-448.4-152.6-758.3-274.7c-79.8-30.5-119.7-39.9-108-21.1c9.4,16.4,204.2,223,429.6,460.1c227.7,237.1,410.8,436.6,408.5,446c-2.3,9.4-77.5,37.5-164.3,63.4L2597.4-911l152.6,84.5c387.3,216,507.1,274.7,535.2,265.3C3301.6-565.9,3374.4-612.9,3449.5-662.1z"/><path d="M6867.6,3676.2c-615.1-91.6-1065.8-612.7-1065.8-1232.5c0-328.7,126.8-631.5,363.9-868.6c603.3-603.3,1608.1-436.7,1986,328.7c176.1,354.5,173.7,741.8-2.3,1098.7C7919.3,3474.3,7381.7,3756,6867.6,3676.2z M7332.4,3345.2c385-129.1,624.5-436.6,647.9-833.4c28.2-507.1-281.7-906.2-779.4-997.7c-406.1-75.1-840.4,152.6-1018.8,537.6c-56.4,119.7-63.4,162-63.4,392.1c0,230.1,7,272.3,63.4,392c68.1,147.9,237.1,342.7,363.9,420.2C6766.7,3394.5,7083.6,3429.7,7332.4,3345.2z"/></g></g>
</svg>