<?xml version="1.0" encoding="utf-8"?>
<!-- Svg Vector Icons : http://www.onlinewebfonts.com/icon -->
<!DOCTYPE svg PUBLIC "-//W3C//DTD SVG 1.1//EN" "http://www.w3.org/Graphics/SVG/1.1/DTD/svg11.dtd">
<svg version="1.1" xmlns="http://www.w3.org/2000/svg" xmlns:xlink="http://www.w3.org/1999/xlink" x="0px" y="0px" viewBox="0 0 1000 1000" enable-background="new 0 0 1000 1000" xml:space="preserve">
<metadata> Svg Vector Icons : http://www.onlinewebfonts.com/icon </metadata>
<g><path d="M933,990"/><path d="M523.8,10"/><path d="M262.8,347"/><path d="M611.7,383.2c13.7,0,24.8-11.1,24.8-24.8V159.7c0-41.1-33.4-74.5-74.5-74.5H115.1c-41.1,0-74.5,33.4-74.5,74.5v595.9c0,37,26.7,77.5,60.7,92l256.3,109.8c8.8,3.8,17.8,5.7,26.4,5.7c10.6,0,20.7-2.9,29.2-8.5c15.6-10.3,24.6-28.6,24.6-50.1v-74.5H562c41.1,0,74.5-33.4,74.5-74.5V556.9c0-13.7-11.1-24.8-24.8-24.8s-24.8,11.1-24.8,24.8v198.6c0,13.7-11.1,24.8-24.8,24.8H437.9V308.7c0-37-26.7-77.5-60.7-92l-190.8-81.8H562c13.7,0,24.8,11.1,24.8,24.8v198.6C586.9,372,598,383.1,611.7,383.2L611.7,383.2z"/><path d="M357.7,262.3"/><path d="M952.1,440.1l-149-149c-9.7-9.7-25.4-9.7-35.1,0c-9.7,9.7-9.7,25.4,0,35.1l106.6,106.6H562c-13.7,0-24.8,11.1-24.8,24.8s11.1,24.8,24.8,24.8h312.5L768,589c-9.7,9.7-9.7,25.4,0,35.1c4.9,4.9,11.2,7.3,17.6,7.3s12.7-2.4,17.6-7.3l149-149C961.8,465.5,961.8,449.7,952.1,440.1L952.1,440.1z"/></g>
</svg>