<?xml version="1.0" encoding="utf-8"?>
<!-- Svg Vector Icons : http://www.onlinewebfonts.com/icon -->
<!DOCTYPE svg PUBLIC "-//W3C//DTD SVG 1.1//EN" "http://www.w3.org/Graphics/SVG/1.1/DTD/svg11.dtd">
<svg version="1.1" xmlns="http://www.w3.org/2000/svg" xmlns:xlink="http://www.w3.org/1999/xlink" x="0px" y="0px" viewBox="0 0 1000 1000" enable-background="new 0 0 1000 1000" xml:space="preserve">
<metadata> Svg Vector Icons : http://www.onlinewebfonts.com/icon </metadata>
<g><g transform="translate(0.000000,511.000000) scale(0.100000,-0.100000)"><path d="M8851.1,4018.8c-80.4-55.5-55.5-112.9,130.1-302.4l172.3-176.1L7716.1,2277c-790.5-692.9-1456.6-1274.8-1477.7-1293.9c-42.1-30.6-68.9-11.5-1169.5,819.2C4263.1,2411,3920.5,2657.9,3865,2673.2c-88,23-201,11.5-285.2-32.5c-84.2-44-3345.8-2509.3-3416.6-2584c-134-137.8-42.1-333.1,155-333.1c53.6,0,310.1,187.6,1736,1265.2c920.7,696.7,1682.5,1269,1695.9,1274.8c11.5,5.7,516.8-363.7,1119.7-819.2c602.9-455.5,1127.4-844.1,1163.7-863.2c84.2-44,237.4-44,335,1.9c42.1,19.1,692.9,576.1,1445.1,1238.4c754.1,662.3,1427.9,1255.6,1498.7,1316.9l130.1,112.9l149.3-147.4c122.5-116.8,162.7-145.5,208.6-145.5c40.2,0,67,13.4,80.4,36.4c11.5,23,19.1,224,19.1,516.8c0,472.8,0,478.5-42.1,507.2c-36.4,24.9-116.8,30.6-503.4,30.6S8887.5,4043.7,8851.1,4018.8z"/><path d="M8273.1,921.9c-352.2-74.6-637.4-243.1-740.7-436.4c-53.6-101.4-45.9-273.7,17.2-382.8c312-528.3,1592.5-612.5,2103.5-135.9c357.9,331.1,141.7,742.6-484.2,926.4C8988.9,946.8,8468.3,962.1,8273.1,921.9z"/><path d="M7488.3-305v-216.3l91.9-78.5c118.7-103.3,356-218.2,558.9-273.7c143.6-38.3,206.7-42.1,526.4-42.1c313.9,0,384.7,5.8,516.8,42.1c199.1,53.6,438.3,172.3,551.3,271.8l90,80.4v220.1v220.1l-90-80.4c-114.8-101.4-356-218.2-551.3-269.9c-233.5-61.3-687.1-70.8-928.3-21.1c-260.3,53.6-465.1,139.7-625.9,260.3L7488.3-86.8V-305z"/><path d="M3459.2-218.9c-275.6-44-562.7-168.4-715.9-312c-74.6-70.8-155-229.7-155-308.2c0-181.8,170.3-394.3,405.8-507.2c245-116.7,388.5-143.6,761.8-143.6c384.7-1.9,503.4,21.1,756,141.7c407.7,195.2,522.5,480.4,308.2,771.4c-90,120.6-369.4,268-624,329.2C4044.9-211.2,3616.2-195.9,3459.2-218.9z"/><path d="M7488.3-877.3v-218.2l86.1-76.6c514.9-453.6,1697.8-446,2178.2,11.5l70.8,68.9v218.2v220.1l-88-82.3c-105.3-97.6-382.8-229.7-581.9-279.4c-216.3-55.5-811.6-49.8-1018.3,7.7c-206.7,55.5-407.7,153.1-535.9,258.4l-111,90V-877.3z"/><path d="M6001.1-795c-733.1-70.8-1156.1-514.9-861.3-899.6c367.5-480.4,1582.9-528.3,2063.3-80.4c329.2,306.3,174.2,691-357.9,884.3C6602.1-802.7,6282.4-766.3,6001.1-795z"/><path d="M2588.3-1447.7v-218.2l72.7-68.9c245-239.3,738.8-380.9,1226.9-354.1c367.5,21.1,706.3,135.9,936,317.7l99.5,78.5v220.1v220.1l-99.5-78.5c-549.3-436.4-1665.2-423-2153.3,26.8l-82.3,76.6V-1447.7z"/><path d="M7488.3-1449.6v-220.1l91.9-80.4c277.5-246.9,803.9-380.9,1286.2-327.3c229.7,24.9,486.2,91.9,627.8,162.7c49.8,24.9,143.6,86.1,210.5,135.9l118.7,90v225.9v227.8l-51.7-49.8c-344.5-321.6-1024-447.9-1628.9-302.4c-174.2,44-453.6,179.9-562.7,277.5l-91.9,80.4V-1449.6z"/><path d="M1034.1-1388.4c-528.3-76.6-886.2-333-884.3-629.7c1.9-258.4,252.6-482.3,671.8-597.2c126.3-34.5,202.9-42.1,484.2-42.1c380.9-1.9,495.7,19.1,756.1,141.6c275.6,128.3,411.5,292.9,411.5,495.8c0,239.3-197.1,432.6-564.6,555.1C1633.2-1375,1319.3-1346.3,1034.1-1388.4z"/><path d="M2588.3-2031.5v-231.6l91.9-78.5c118.7-103.3,356-218.2,558.9-273.7c143.6-38.3,206.7-42.1,526.4-42.1c313.9,0,384.7,5.8,516.8,42.1c206.7,55.5,442.1,176.1,562.7,283.3l97.6,88v218.2v218.2l-107.2-86.1c-145.5-118.7-342.6-214.4-560.8-271.8c-157-42.1-227.8-49.8-490-51.7c-189.5,0-350.3,7.7-421.1,23c-310.1,67-555.1,181.8-702.5,325.4l-72.7,68.9V-2031.5z"/><path d="M5038.3-2031.5v-231.6l91.9-80.4c112.9-97.6,352.2-216.3,551.3-271.8c134-36.4,197.1-42.1,534-42.1c361.8,0,392.4,3.8,551.3,51.7c223.9,68.9,403.9,162.7,526.4,271.8l99.5,90v220.1v220.1l-86.1-76.6c-524.5-461.3-1715-455.5-2195.4,11.5l-72.7,68.9V-2031.5z"/><path d="M7488.3-2025.8c0-252.6,3.8-260.3,187.6-380.9c285.2-189.5,528.3-250.8,980-252.7c287.1,0,359.8,5.7,507.2,44c210.5,53.6,447.9,166.5,570.4,271.8l90,80.4v220.1v220.1l-90-80.4c-120.6-105.3-356-218.2-570.4-271.8c-149.3-38.3-220.1-44-516.8-42.1c-290.9,0-367.5,7.7-497.6,42.1c-197.1,53.6-474.7,191.4-578,287.1l-82.3,76.6V-2025.8z"/><path d="M138.3-2619.1v-218.2l90-80.4c511-442.1,1672.9-440.2,2157.1,1.9l107.2,97.6v208.6c0,114.8-5.7,208.6-11.5,208.6c-7.7,0-49.8-34.4-95.7-74.6c-103.4-95.7-302.4-197.1-518.7-264.1c-158.9-49.8-189.5-51.7-551.2-51.7c-333,0-401.9,5.8-530.2,40.2c-206.7,59.3-407.7,157-535.9,262.2l-111,90V-2619.1z"/><path d="M2588.3-2619.1v-218.2l91.9-78.5c526.4-451.7,1692-444.1,2172.5,13.4l70.8,68.9v218.2v220.1l-84.2-78.5c-105.3-97.6-304.3-199.1-522.5-266.1c-158.9-49.8-189.5-51.7-551.2-51.7c-333,0-402,5.8-530.2,40.2c-206.7,59.3-407.7,155-535.9,260.3l-111,90V-2619.1z"/><path d="M5038.3-2619.1v-218.2l86.1-76.6c514.9-451.7,1697.8-446,2178.2,11.5l70.8,68.9v218.2v220.1l-84.2-78.5c-105.3-97.6-304.3-199.1-522.5-266.1c-158.9-49.8-189.5-51.7-551.3-51.7c-333,0-402,5.8-530.2,40.2c-206.7,59.3-407.7,155-535.9,260.3l-111,90V-2619.1z"/><path d="M7488.3-2619.1v-218.2l91.9-78.5c524.5-451.7,1692-444.1,2172.5,13.4l70.8,68.9v218.2v220.1l-84.2-78.5c-105.3-97.6-304.3-199.1-522.5-266.1c-158.9-49.8-189.5-51.7-551.3-51.7c-333,0-401.9,5.8-530.2,40.2c-206.7,59.3-407.7,155-535.9,260.3l-111,90V-2619.1z"/><path d="M138.3-3191.4v-220.1l90-80.4c520.6-459.4,1688.2-446,2193.5,24.9c49.8,47.9,51.7,53.6,51.7,269.9v220.1l-51.7-49.8c-346.4-323.5-1018.3-447.9-1632.7-300.5c-170.4,42.1-449.8,178-558.9,275.6l-91.9,80.4V-3191.4z"/><path d="M2588.3-3191.4v-220.1l95.7-86.1c520.6-453.6,1686.3-438.3,2187.8,30.6c49.8,47.9,51.7,53.6,51.7,269.9v220.1l-51.7-49.8c-346.4-323.5-1018.3-447.9-1632.7-300.5c-170.3,42.1-449.8,178-558.9,275.6l-91.9,80.4V-3191.4z"/><path d="M5038.3-3191.4v-220.1l91.9-82.3c126.3-111,398.1-239.2,606.8-283.3c570.4-122.5,1144.6-26.8,1517.8,254.6l118.7,91.9v227.8v227.8l-68.9-61.3c-162.7-147.4-384.7-252.7-668-312c-185.7-40.2-612.5-45.9-794.3-11.5c-283.3,53.6-560.8,174.2-717.8,312l-86.1,76.6V-3191.4z"/><path d="M7488.3-3191.4v-220.1l91.9-82.3c124.4-111,396.2-239.2,616.3-289c214.4-47.9,641.2-57.4,842.2-17.2c300.5,59.3,549.3,170.3,717.8,321.6l67,59.3v222v222l-68.9-61.3c-216.3-199.1-537.9-315.8-955.1-350.3c-168.4-13.4-467,13.4-660.3,59.3c-170.4,42.1-449.8,178-558.9,275.6l-91.9,80.4V-3191.4z"/></g></g>
</svg>