<?xml version="1.0" encoding="utf-8"?>
<!-- Svg Vector Icons : http://www.onlinewebfonts.com/icon -->
<!DOCTYPE svg PUBLIC "-//W3C//DTD SVG 1.1//EN" "http://www.w3.org/Graphics/SVG/1.1/DTD/svg11.dtd">
<svg version="1.1" xmlns="http://www.w3.org/2000/svg" xmlns:xlink="http://www.w3.org/1999/xlink" x="0px" y="0px" viewBox="0 0 1000 1000" enable-background="new 0 0 1000 1000" xml:space="preserve">
<metadata> Svg Vector Icons : http://www.onlinewebfonts.com/icon </metadata>
<g><path d="M734.8,482.3L527.6,742.9l-68.1-77.4c-14.9-16.8-43.1-19.2-60.5-4.9c-9.1,7.4-14.7,17.9-15.6,29.4c-1,11.5,2.8,22.7,10.4,31.4l102.7,97.2c8.3,9.3,20.3,14.7,32.8,14.7h1.1c13-0.3,25.1-6.3,33.2-16.3l239.7-282c7.2-9.1,10.3-20.4,8.8-31.8c-1.5-11.6-7.6-21.7-17.1-28.7C776.6,460.8,748.8,464.5,734.8,482.3L734.8,482.3z M925.9,10H480.4v78.4H892v823.2H108V88.4h372.4V10H74c-24.5,0-44.4,20-44.4,44.5v891c0,24.6,19.9,44.5,44.4,44.5h851.9c24.6,0,44.5-19.9,44.5-44.5v-891C970.4,30,950.5,10,925.9,10L925.9,10z M412.4,598c89.9,0,185.7-11.2,185.7-60.6v-13.6c0-37.4-66.5-73.8-125.7-93.1c-2.7-0.9-19.8-8.5-9.1-40.5H463c27.8-28.3,49-73.7,49-118.5c0-68.8-46.4-104.9-100.3-104.9c-53.9,0-100,36.1-100,104.9c0,44.9,21.1,90.6,49.1,118.8c10.9,28.2-8.6,38.7-12.7,40.2c-56.4,20.1-122.6,56.9-122.6,93.1v13.6C225.6,586.8,322.6,598,412.4,598L412.4,598z"/></g>
</svg>