<?xml version="1.0" encoding="utf-8"?>
<!-- Svg Vector Icons : http://www.onlinewebfonts.com/icon -->
<!DOCTYPE svg PUBLIC "-//W3C//DTD SVG 1.1//EN" "http://www.w3.org/Graphics/SVG/1.1/DTD/svg11.dtd">
<svg version="1.1" xmlns="http://www.w3.org/2000/svg" xmlns:xlink="http://www.w3.org/1999/xlink" x="0px" y="0px" viewBox="0 0 1000 1000" enable-background="new 0 0 1000 1000" xml:space="preserve">
<metadata> Svg Vector Icons : http://www.onlinewebfonts.com/icon </metadata>
<g><g transform="translate(0.000000,511.000000) scale(0.100000,-0.100000)"><path d="M6099.4,4565.5v-398h159.2h159.2v398v398h-159.2h-159.2V4565.5z"/><path d="M5462.6,4485.9v-318.4h159.2H5781v318.4v318.4h-159.2h-159.2V4485.9z"/><path d="M4348.3,4008.3v-477.6h159.2h159.2v477.6v477.6h-159.2h-159.2V4008.3z"/><path d="M3711.6,3928.7v-398h159.2H4030v398v398h-159.2h-159.2V3928.7z"/><path d="M5761.1,3976.5c-284.5-103.5-479.5-386-451.7-656.7c13.9-129.3,111.4-324.3,207-405.9c133.3-117.4,258.7-167.1,423.8-167.1c123.4,0,167.2,9.9,252.7,53.7c149.2,77.6,228.8,155.2,306.4,296.5c57.7,111.4,65.7,143.3,65.7,274.6c0,165.2-49.7,292.5-167.1,423.8C6250.6,3964.5,5956.1,4048.1,5761.1,3976.5z M6135.2,3638.2c87.6-65.7,127.4-161.2,117.4-292.5c-12-199-131.3-300.5-338.3-286.6c-199,11.9-300.5,131.3-286.5,338.3c8,131.3,51.7,205,155.2,258.7C5872.5,3703.9,6057.6,3693.9,6135.2,3638.2z"/><path d="M4010,3339.7c-364.1-131.3-555.2-535.3-400-839.7l41.8-81.6l-187-6l-189-6l250.7-407.9c135.3-224.8,270.6-443.7,296.5-489.5l47.8-81.6l-266.6-220.9l-266.6-222.9h-1564h-1564V824.6V665.4h1619.7h1619.7l435.8,362.2c238.8,197,449.7,374.1,467.6,390c31.8,25.9,83.6,15.9,507.4-105.5c260.7-73.6,483.5-139.3,497.5-147.2c39.8-21.9,378.1-455.7,403.9-517.4c31.8-77.6,13.9-143.3-61.7-228.8c-67.7-79.6-175.1-121.4-252.7-101.5c-27.9,6-137.3,97.5-242.8,201c-105.5,103.5-199,187-206.9,187c-9.9,0-216.9-161.2-461.7-356.2L4089.6-7.2l51.7-63.7l53.7-61.7l-33.8-173.1c-39.8-205-109.4-386-214.9-559.2c-111.4-185-274.6-380-318.4-380c-19.9,0-107.5,35.8-195,79.6l-159.2,79.6H1741.6H209.4v-159.2v-159.2h1492.4h1494.4l119.4-59.7l119.4-61.7l-37.8-53.7c-113.4-159.2-246.7-505.4-288.5-746.2l-21.9-135.3l-324.4,324.3L2438.1-1812L1270-2982L100-4150l115.4-113.4l113.4-115.4l1054.6,1054.6l1054.6,1054.6l322.4-324.3l324.3-322.3l45.8-193c161.2-700.4,678.5-1277.5,1367-1524.2c1164.1-417.9,2495.3,403.9,2686.3,1657.5c37.8,238.8,37.8,382.1,0,608.9c-55.7,342.3-191,666.6-394,935.2c-103.5,137.3-105.5,141.3-81.6,208.9c47.8,133.3,25.9,268.6-65.7,392l-47.7,63.7l49.7,65.7c27.8,35.8,61.7,107.5,73.6,159.2c31.9,113.4,4,246.8-73.6,346.3l-49.7,65.7l49.7,65.7c77.6,101.5,105.5,230.8,73.6,354.2l-25.9,101.5l427.8,427.8l427.8,427.8l398-320.4c220.9-175.1,403.9-320.4,409.9-320.4c4,0,264.6,354.2,579,786c314.4,431.8,577.1,790,585,795.9c7.9,4,31.8-59.7,49.7-141.3c29.8-119.4,41.8-147.2,67.6-139.3c19.9,6,85.6,23.9,149.2,41.8c61.7,17.9,113.4,43.8,113.4,55.7c0,19.9-103.5,441.8-161.2,656.7l-19.9,73.6h-376.1h-378.1v-159.2v-157.2l159.2-6l159.2-6l-469.6-646.7c-258.7-356.2-481.6-658.6-495.5-674.6c-23.9-23.9-85.6,17.9-403.9,274.6c-207,165.2-386,300.5-394,300.5c-10,0-189-169.1-396-378.1c-207-206.9-384-378.1-392-378.1c-6,0-17.9,25.9-25.9,59.7c-15.9,75.6-169.1,244.7-258.7,286.5c-37.8,19.9-105.5,39.8-149.2,47.8l-79.6,13.9l300.5,525.3c165.2,288.5,304.5,537.3,310.4,551.2c7.9,23.9-165.2,27.9-1046.7,27.9H4726.4l43.8,85.6c67.7,125.4,61.7,344.3-10,485.5c-77.6,149.2-155.2,228.8-294.5,304.4C4314.5,3371.6,4147.3,3389.5,4010,3339.7z M4384.1,3001.5c87.6-65.7,127.4-161.2,117.4-292.5c-11.9-199-131.3-300.5-338.3-286.5c-199,11.9-300.5,131.3-286.5,338.3c8,131.3,51.7,205,155.2,258.7C4121.5,3067.1,4306.5,3057.2,4384.1,3001.5z M6252.6,2010.5c-25.9-47.8-127.4-226.8-224.9-398l-177.1-310.4h-93.5c-79.6,0-97.5,8-149.2,69.6c-53.7,65.7-81.6,75.6-622.8,228.8c-312.4,89.6-591,169.1-618.8,179.1c-45.8,13.9-67.7,4-147.2-61.7c-53.7-43.8-103.5-71.6-111.4-63.7c-8,8-73.6,111.4-145.3,230.8L3831,2098.1h1235.7h1235.7L6252.6,2010.5z M6378,944c25.9-25.9,39.8-65.7,39.8-119.4c0-123.4-49.7-159.2-214.9-159.2h-135.3l-21.9,85.6c-13.9,45.8-45.8,117.4-73.6,159.2l-49.7,73.6h207C6312.3,983.8,6344.1,977.8,6378,944z M6378,307.2c25.9-25.9,39.8-65.7,39.8-119.4c0-53.7-13.9-93.5-39.8-119.4c-35.8-35.8-65.7-39.8-372.1-39.8h-334.3l79.6,37.8c91.5,41.8,197,139.3,240.8,222.9c27.9,55.7,31.8,57.7,187.1,57.7C6312.3,347,6344.1,341,6378,307.2z M5064.7,201.7c45.8-41.8,91.5-105.5,103.5-139.3c11.9-35.8,43.8-93.5,69.6-127.4l47.7-65.7l-49.7-65.7c-27.8-35.8-61.7-107.5-73.6-159.2c-31.8-113.4-4-246.7,73.6-346.2l49.7-65.7l-49.7-65.7c-77.6-99.5-105.5-232.8-73.6-346.2c11.9-51.7,45.8-123.4,73.6-159.2l49.7-65.7h-149.2h-151.2v-157.2v-155.2l-107.5-11.9c-290.5-29.8-517.4-270.6-517.4-551.2c0-208.9,113.4-388,316.4-493.5c93.5-49.7,119.4-53.7,463.6-63.7l366.2-10l57.7-65.7c47.8-53.7,57.7-81.6,57.7-165.1c0-89.6-8-109.5-67.7-169.1l-67.6-67.7h-342.3H4802l-67.7,67.7c-57.7,57.7-67.7,81.6-67.7,159.2v91.5h-161.2h-163.2l11.9-107.5c27.9-272.6,250.7-495.4,523.3-523.3l107.5-11.9v-155.2v-157.2h159.2h159.2v157.2v155.2l107.5,11.9c57.7,6,145.3,29.8,193,53.7c435.8,218.9,433.8,772.1-2,998.9c-81.6,41.8-121.4,45.8-453.7,55.7l-366.1,9.9l-57.7,65.7c-47.8,53.7-57.7,81.6-57.7,165.2c0,89.5,8,109.4,67.7,169.1l67.7,67.7h342.3h342.3l67.6-67.7c57.7-57.7,67.7-81.6,67.7-159.2v-91.5H5783h163.2l-11.9,107.5c-27.9,272.6-248.7,495.5-519.4,523.3l-111.4,11.9v147.3v147.2l65.7-49.7c111.4-83.6,193-95.5,610.9-85.6c212.9,4,409.9,13.9,437.8,21.9c45.8,13.9,61.7,2,137.3-101.5c107.4-141.3,244.7-429.8,290.5-602.9c49.7-197,59.7-531.3,21.9-752.2c-125.4-720.3-666.6-1269.5-1382.9-1404.8c-879.5-167.1-1737.1,336.3-2007.7,1182c-133.3,413.9-105.5,881.5,73.6,1263.6c91.5,193,179.1,322.4,344.2,499.5c326.3,354.2,533.3,776,593,1203.9l23.9,171.1l220.9,181.1c123.4,99.5,228.8,179.1,234.8,177.1C4975.1,279.4,5016.9,243.5,5064.7,201.7z M6378-329.5c25.9-25.9,39.8-65.7,39.8-119.4s-13.9-93.5-39.8-119.4c-37.8-37.8-65.7-39.8-437.8-39.8c-372.1,0-400,2-437.8,39.8c-25.9,25.9-39.8,65.7-39.8,119.4s13.9,93.5,39.8,119.4c37.8,37.8,65.7,39.8,437.8,39.8C6312.3-289.8,6340.2-291.7,6378-329.5z M6378-966.3c25.9-25.9,39.8-65.7,39.8-119.4c0-53.7-13.9-93.5-39.8-119.4c-37.8-37.8-65.7-39.8-437.8-39.8c-372.1,0-400,2-437.8,39.8c-25.9,25.9-39.8,65.7-39.8,119.4c0,53.7,13.9,93.5,39.8,119.4c37.8,37.8,65.7,39.8,437.8,39.8C6312.3-926.5,6340.2-928.5,6378-966.3z"/></g></g>
</svg>