<?xml version="1.0" encoding="utf-8"?>
<!-- Svg Vector Icons : http://www.onlinewebfonts.com/icon -->
<!DOCTYPE svg PUBLIC "-//W3C//DTD SVG 1.1//EN" "http://www.w3.org/Graphics/SVG/1.1/DTD/svg11.dtd">
<svg version="1.1" xmlns="http://www.w3.org/2000/svg" xmlns:xlink="http://www.w3.org/1999/xlink" x="0px" y="0px" viewBox="0 0 1000 1000" enable-background="new 0 0 1000 1000" xml:space="preserve">
<metadata> Svg Vector Icons : http://www.onlinewebfonts.com/icon </metadata>
<g><g><g><g><path d="M50.4,387C28.1,387,10,448.5,10,474.5c0,26.1,18.1,87.7,40.4,87.7h23.8l131,246.3h102.1L220,573.8c245,41.5,436.9,183.8,436.9,183.8V540.8V408.4V191.5c0,0-262.8,195.4-566,195.4H50.4z"/><path d="M697.3,393.7v161.7c39.1,0,70.7-36.2,70.7-80.9C768.1,429.9,736.4,393.7,697.3,393.7z"/></g><g><g><path d="M798.9,471.4c0-11.7,9.4-21.2,21.2-21.2h148.6c11.7,0,21.3,9.5,21.3,21.2c0,11.8-9.5,21.3-21.3,21.3H820.1C808.4,492.7,798.9,483.2,798.9,471.4z"/></g><g><path d="M761.9,333.6c0-7.3,3.8-14.5,10.6-18.4l128.8-74.3c10.1-5.9,23.1-2.4,29,7.7c5.9,10.1,2.5,23.1-7.8,29l-128.7,74.3c-10.2,5.9-23.2,2.4-29-7.8C762.9,340.8,761.9,337.1,761.9,333.6z"/></g><g><path d="M761.8,609.2c0-3.5,0.9-7.2,2.8-10.6c5.8-10.2,18.8-13.6,29-7.8l128.9,74.5c10.1,6,13.6,18.8,7.7,29c-5.8,10.1-18.9,13.6-29,7.7l-128.9-74.4C765.6,623.7,761.8,616.6,761.8,609.2z"/></g></g></g></g><g></g><g></g><g></g><g></g><g></g><g></g><g></g><g></g><g></g><g></g><g></g><g></g><g></g><g></g><g></g></g>
</svg>