<?xml version="1.0" encoding="UTF-8"?>
<svg width="214px" height="62px" viewBox="0 0 214 62" version="1.1" xmlns="http://www.w3.org/2000/svg" xmlns:xlink="http://www.w3.org/1999/xlink">
    <!-- Generator: Sketch 61.2 (89653) - https://sketch.com -->
    <title>BizDay_Logo_All_Black</title>
    <desc>Created with Sketch.</desc>
    <g id="Page-1" stroke="none" stroke-width="1" fill="none" fill-rule="evenodd">
        <path d="M134.926667,10.26 L136.906667,31.68 L137.866667,42.6 L139.006667,31.68 L141.346667,10.26 L151.426667,10.26 L143.266667,56.46 L143.2068,56.798 C142.909378,58.3473333 142.359333,59.5046667 141.556667,60.27 C140.696667,61.09 139.346667,61.5 137.506667,61.5 L137.506667,61.5 L125.686667,61.5 L125.686667,54.84 L130.726667,54.84 L130.875442,54.8354082 C131.496259,54.7956122 131.806667,54.4971429 131.806667,53.94 C131.806667,53.66 131.786667,53.44 131.746667,53.28 L131.746667,53.28 L124.906667,10.26 L134.926667,10.26 Z M109.873333,9.78 C113.513333,9.78 116.473333,10.73 118.753333,12.63 C121.033333,14.53 122.173333,17.22 122.173333,20.7 L122.173333,20.7 L122.173333,54.18 L111.733333,54.18 L111.733333,48.96 L111.6252,49.3146667 C111.101289,50.9448889 110.307333,52.2266667 109.243333,53.16 C108.103333,54.16 106.753333,54.66 105.193333,54.66 C101.793333,54.66 99.4633334,53.53 98.2033334,51.27 C96.9433334,49.01 96.3133334,45.78 96.3133334,41.58 C96.3133334,38.14 96.7633334,35.5 97.6633334,33.66 C98.5633334,31.82 99.8133334,30.47 101.413333,29.61 C103.013333,28.75 105.453333,27.8 108.733333,26.76 L108.733333,26.76 L111.613333,25.8 L111.613333,21.3 L111.608542,21.015625 C111.573403,19.9935417 111.345,19.1983333 110.923333,18.63 C110.463333,18.01 109.913333,17.7 109.273333,17.7 C108.713333,17.7 108.223333,17.96 107.803333,18.48 C107.383333,19 107.173333,19.7 107.173333,20.58 L107.173333,20.58 L107.173333,23.22 L96.9733334,23.22 L96.9733334,21.78 L96.9767,21.3521333 C97.0417889,17.2560444 98.0506667,14.3186667 100.003333,12.54 C102.023333,10.7 105.313333,9.78 109.873333,9.78 Z M13.98,2.64 L14.3789158,2.64352041 C17.9336862,2.70688776 20.5307143,3.62571429 22.17,5.4 C23.87,7.24 24.72,10.24 24.72,14.4 L24.72,14.4 L24.72,16.68 L24.7170068,17.0280612 C24.6351927,21.7388776 22.8761905,24.5628571 19.44,25.5 C21.6,26.06 23.12,27.36 24,29.4 C24.88,31.44 25.32,34.14 25.32,37.5 C25.32,42.98 24.5,47.13 22.86,49.95 C21.22,52.77 18.26,54.18 13.98,54.18 L13.98,54.18 L-2.84217094e-14,54.18 L-2.84217094e-14,2.64 L13.98,2.64 Z M39.3333333,10.26 L39.3333333,54.18 L28.8333333,54.18 L28.8333333,10.26 L39.3333333,10.26 Z M64.3266667,10.26 L64.3266667,17.4 L54.0066667,46.32 L64.4466667,46.32 L64.4466667,54.18 L42.5466667,54.18 L42.5466667,47.76 L53.4666667,18.54 L43.0266667,18.54 L43.0266667,10.26 L64.3266667,10.26 Z M81.7,2.64 L82.0907653,2.64390306 C85.5759694,2.71415816 88.2057143,3.73285714 89.98,5.7 C91.82,7.74 92.76,10.76 92.8,14.76 L92.8,14.76 L92.92,38.88 L92.9208561,39.4010226 C92.8982164,44.2219501 92.017931,47.8682759 90.28,50.34 C88.48,52.9 85.5,54.18 81.34,54.18 L81.34,54.18 L67.48,54.18 L67.48,2.64 L81.7,2.64 Z M174.093333,2.64 L174.093333,45.42 L184.713333,45.42 L184.713333,54.18 L163.773333,54.18 L163.773333,2.64 L174.093333,2.64 Z M208.986667,2.64 L213.906667,54.18 L204.126667,54.18 L203.406667,45.84 L197.166667,45.84 L196.566667,54.18 L186.546667,54.18 L191.526667,2.64 L208.986667,2.64 Z M159.9,45.18 L159.9,53.94 L149.4,53.94 L149.4,45.18 L159.9,45.18 Z M111.553333,30.84 L111.225323,30.9710204 C109.831139,31.5493878 108.790476,32.2657143 108.103333,33.12 C107.363333,34.04 106.993333,35.32 106.993333,36.96 L106.993333,36.96 L106.993333,42.6 L106.996116,42.8643282 C107.048054,45.2881094 107.827126,46.5 109.333333,46.5 C110.133333,46.5 110.703333,46.17 111.043333,45.51 C111.383333,44.85 111.553333,44.04 111.553333,43.08 L111.553333,43.08 L111.553333,30.84 Z M12,30.12 L10.08,30.12 L10.08,45.06 L11.1,45.12 C13.78,45.12 15.12,43.84 15.12,41.28 L15.12,41.28 L15.12,34.86 L15.1164796,34.5315306 C15.0859694,33.1333673 14.8571429,32.0628571 14.43,31.32 C13.97,30.52 13.16,30.12 12,30.12 L12,30.12 Z M79,11.64 L77.86,11.64 L77.86,45.06 L79.66,45.06 C81.54,45.06 82.48,44.14 82.48,42.3 L82.48,42.3 L82.48,15.72 L82.4777686,15.4108264 C82.4628926,14.4042149 82.3736364,13.6372727 82.21,13.11 C82.03,12.53 81.7,12.14 81.22,11.94 C80.74,11.74 80,11.64 79,11.64 L79,11.64 Z M200.346667,11.4 L199.866667,11.4 L197.946667,37.62 L202.626667,37.62 L200.346667,11.4 Z M12.24,10.56 L10.08,10.56 L10.08,22.02 L12.18,22.02 C13.06,22.02 13.66,21.69 13.98,21.03 C14.3,20.37 14.46,19.44 14.46,18.24 L14.46,18.24 L14.46,13.08 L14.4561458,12.874375 C14.3970486,11.3314583 13.6583333,10.56 12.24,10.56 L12.24,10.56 Z M39.3333333,0 L39.3333333,7.32 L28.8333333,7.32 L28.8333333,0 L39.3333333,0 Z" id="BizDay_Logo_All_Black" fill="#020122" fill-rule="nonzero"></path>
    </g>
</svg>