<?xml version="1.0" encoding="UTF-8" standalone="no"?>
<!DOCTYPE svg PUBLIC "-//W3C//DTD SVG 1.1//EN" "http://www.w3.org/Graphics/SVG/1.1/DTD/svg11.dtd">
<svg width="100%" height="100%" viewBox="0 0 172 38" version="1.1" xmlns="http://www.w3.org/2000/svg" xmlns:xlink="http://www.w3.org/1999/xlink" xml:space="preserve" xmlns:serif="http://www.serif.com/" style="fill-rule:evenodd;clip-rule:evenodd;stroke-linejoin:round;stroke-miterlimit:2;">
    <g transform="matrix(2,0,0,2,-0.436,-24.252)">
        <g>
            <path d="M4.344,19.274C4.842,19.274 5.231,19.179 5.516,18.989C5.798,18.8 5.941,18.516 5.941,18.136L5.941,18.112C5.941,17.757 5.8,17.482 5.522,17.289C5.241,17.095 4.814,16.998 4.24,16.998L1.934,16.998L1.934,19.274L4.344,19.274ZM3.92,15.765C4.392,15.765 4.769,15.673 5.053,15.487C5.336,15.301 5.478,15.018 5.478,14.639L5.478,14.616C5.478,14.283 5.354,14.025 5.107,13.839C4.858,13.654 4.498,13.561 4.024,13.561L1.934,13.561L1.934,15.765L3.92,15.765ZM0.488,12.268L4.204,12.268C5.158,12.268 5.879,12.513 6.369,13.003C6.739,13.375 6.925,13.833 6.925,14.378L6.925,14.402C6.925,14.655 6.891,14.878 6.824,15.072C6.758,15.265 6.672,15.435 6.567,15.582C6.46,15.728 6.334,15.856 6.19,15.967C6.045,16.077 5.897,16.172 5.749,16.251C5.992,16.339 6.213,16.439 6.415,16.554C6.614,16.668 6.788,16.805 6.932,16.962C7.078,17.121 7.191,17.307 7.268,17.52C7.347,17.733 7.387,17.982 7.387,18.267L7.387,18.29C7.387,18.662 7.313,18.989 7.167,19.274C7.021,19.559 6.816,19.796 6.547,19.985C6.278,20.175 5.955,20.319 5.577,20.418C5.198,20.517 4.779,20.566 4.322,20.566L0.488,20.566L0.488,12.268Z" style="fill:rgb(42,42,42);"/>
            <rect x="17.7" y="12.268" width="1.446" height="8.298" style="fill:rgb(42,42,42);"/>
            <path d="M24.457,19.251C24.892,19.251 25.287,19.181 25.642,19.043C25.998,18.902 26.3,18.709 26.549,18.458C26.798,18.209 26.992,17.911 27.13,17.565C27.269,17.221 27.337,16.846 27.337,16.441L27.337,16.417C27.337,16.012 27.269,15.635 27.13,15.287C26.992,14.938 26.798,14.637 26.549,14.388C26.3,14.137 25.998,13.942 25.642,13.798C25.287,13.656 24.892,13.584 24.457,13.584L22.821,13.584L22.821,19.251L24.457,19.251ZM21.375,12.268L24.469,12.268C25.117,12.268 25.711,12.373 26.253,12.582C26.794,12.792 27.261,13.082 27.651,13.454C28.043,13.825 28.345,14.262 28.558,14.764C28.772,15.265 28.879,15.809 28.879,16.394L28.879,16.417C28.879,17.002 28.772,17.547 28.558,18.053C28.345,18.559 28.043,18.997 27.651,19.369C27.261,19.74 26.794,20.033 26.253,20.246C25.711,20.46 25.117,20.566 24.469,20.566L21.375,20.566L21.375,12.268Z" style="fill:rgb(42,42,42);"/>
            <path d="M34.58,20.708C33.932,20.708 33.344,20.6 32.814,20.382C32.284,20.165 31.832,19.865 31.457,19.482C31.081,19.098 30.791,18.648 30.586,18.13C30.38,17.613 30.277,17.049 30.277,16.441L30.277,16.417C30.277,15.84 30.382,15.291 30.594,14.77C30.805,14.248 31.101,13.792 31.483,13.4C31.864,13.009 32.318,12.699 32.844,12.47C33.37,12.241 33.944,12.126 34.569,12.126C34.932,12.126 35.262,12.152 35.558,12.203C35.855,12.255 36.129,12.328 36.382,12.422C36.635,12.517 36.874,12.634 37.099,12.772C37.325,12.911 37.544,13.07 37.757,13.252L36.833,14.355C36.674,14.22 36.513,14.098 36.347,13.987C36.181,13.877 36.007,13.784 35.825,13.709C35.643,13.634 35.444,13.574 35.226,13.531C35.009,13.487 34.77,13.466 34.509,13.466C34.13,13.466 33.776,13.545 33.448,13.703C33.12,13.861 32.836,14.074 32.595,14.339C32.354,14.604 32.164,14.914 32.026,15.271C31.888,15.627 31.818,16.004 31.818,16.4L31.818,16.423C31.818,16.85 31.886,17.247 32.02,17.611C32.154,17.976 32.344,18.288 32.593,18.549C32.842,18.81 33.136,19.017 33.48,19.167C33.824,19.318 34.207,19.393 34.634,19.393C35.027,19.393 35.396,19.335 35.738,19.221C36.082,19.104 36.378,18.952 36.631,18.76L36.631,17.199L34.509,17.199L34.509,15.931L38.042,15.931L38.042,19.416C37.836,19.59 37.609,19.756 37.36,19.914C37.111,20.072 36.842,20.211 36.554,20.329C36.266,20.448 35.955,20.54 35.624,20.607C35.292,20.675 34.944,20.708 34.58,20.708Z" style="fill:rgb(42,42,42);"/>
            <path d="M41.385,15.718L45.546,15.718L45.546,17.034L41.385,17.034L41.385,19.251L46.138,19.251L46.138,20.566L39.939,20.566L39.939,15.718L41.385,15.718Z" style="fill:rgb(42,42,42);"/>
            <path d="M39.939,12.268L46.079,12.268L46.079,13.584L41.385,13.584L39.939,13.584L39.939,12.268Z" style="fill:rgb(255,94,20);"/>
            <path d="M49.92,13.62L47.288,13.62L47.288,12.268L54.021,12.268L54.021,13.62L51.39,13.62L51.39,20.566L49.92,20.566L49.92,13.62Z" style="fill:rgb(42,42,42);"/>
            <path d="M59.545,19.369C59.955,19.369 60.33,19.292 60.673,19.137C61.016,18.984 61.308,18.774 61.553,18.51C61.796,18.245 61.988,17.934 62.124,17.579C62.262,17.223 62.331,16.844 62.331,16.441L62.331,16.417C62.331,16.014 62.262,15.633 62.124,15.273C61.988,14.914 61.794,14.602 61.547,14.337C61.298,14.072 61.002,13.861 60.656,13.703C60.308,13.545 59.931,13.466 59.522,13.466C59.113,13.466 58.737,13.543 58.394,13.697C58.052,13.851 57.759,14.06 57.514,14.325C57.272,14.59 57.08,14.9 56.944,15.255C56.805,15.611 56.736,15.99 56.736,16.394L56.736,16.417C56.736,16.82 56.805,17.201 56.944,17.561C57.08,17.921 57.274,18.233 57.52,18.498C57.769,18.762 58.066,18.974 58.412,19.132C58.759,19.29 59.137,19.369 59.545,19.369ZM59.522,20.708C58.882,20.708 58.297,20.596 57.767,20.371C57.238,20.145 56.783,19.839 56.404,19.452C56.025,19.065 55.729,18.612 55.515,18.095C55.302,17.577 55.195,17.026 55.195,16.441L55.195,16.417C55.195,15.833 55.302,15.281 55.515,14.764C55.729,14.246 56.029,13.792 56.416,13.4C56.803,13.009 57.262,12.699 57.791,12.47C58.321,12.241 58.905,12.126 59.545,12.126C60.186,12.126 60.771,12.239 61.3,12.464C61.829,12.689 62.284,12.996 62.663,13.383C63.042,13.77 63.339,14.222 63.552,14.74C63.766,15.257 63.872,15.809 63.872,16.394L63.872,16.417C63.872,17.002 63.766,17.553 63.552,18.071C63.339,18.589 63.038,19.043 62.651,19.434C62.264,19.825 61.806,20.136 61.276,20.365C60.747,20.594 60.162,20.708 59.522,20.708Z" style="fill:rgb(42,42,42);"/>
            <path d="M64.999,12.268L66.575,12.268L68.555,18.421L70.594,12.245L71.826,12.245L73.865,18.421L75.845,12.268L77.374,12.268L74.482,20.625L73.225,20.625L71.186,14.663L69.148,20.625L67.891,20.625L64.999,12.268Z" style="fill:rgb(42,42,42);"/>
            <path d="M78.868,12.268L80.217,12.268L84.653,18.006L84.653,12.268L86.099,12.268L86.099,20.566L84.88,20.566L80.314,14.663L80.314,20.566L78.868,20.566L78.868,12.268Z" style="fill:rgb(42,42,42);"/>
            <path d="M2.528,27.353C2.888,27.353 3.173,27.264 3.38,27.083C3.589,26.904 3.692,26.672 3.692,26.389L3.692,26.373C3.692,26.055 3.587,25.814 3.376,25.652C3.166,25.49 2.883,25.409 2.528,25.409L1.426,25.409L1.426,27.353L2.528,27.353ZM0.488,24.556L2.609,24.556C2.921,24.556 3.205,24.598 3.458,24.683C3.712,24.767 3.927,24.889 4.104,25.048C4.28,25.207 4.416,25.396 4.511,25.617C4.606,25.837 4.653,26.083 4.653,26.354L4.653,26.37C4.653,26.672 4.597,26.937 4.484,27.165C4.37,27.393 4.216,27.584 4.022,27.737C3.826,27.891 3.598,28.008 3.336,28.087C3.074,28.166 2.795,28.206 2.496,28.206L1.426,28.206L1.426,29.935L0.488,29.935L0.488,24.556ZM11.033,27.799L10.103,25.647L9.181,27.799L11.033,27.799ZM9.681,24.518L10.557,24.518L12.924,29.935L11.925,29.935L11.379,28.637L8.835,28.637L8.282,29.935L7.313,29.935L9.681,24.518ZM18.324,27.222C18.663,27.222 18.933,27.142 19.133,26.979C19.334,26.818 19.434,26.597 19.434,26.32L19.434,26.304C19.434,26.011 19.337,25.788 19.14,25.637C18.946,25.484 18.67,25.409 18.316,25.409L16.936,25.409L16.936,27.222L18.324,27.222ZM15.999,24.556L18.396,24.556C18.735,24.556 19.034,24.603 19.296,24.698C19.557,24.793 19.775,24.925 19.949,25.094C20.092,25.242 20.202,25.414 20.279,25.609C20.356,25.804 20.394,26.019 20.394,26.254L20.394,26.27C20.394,26.49 20.362,26.689 20.298,26.865C20.234,27.042 20.146,27.198 20.033,27.334C19.921,27.47 19.786,27.585 19.63,27.68C19.474,27.775 19.301,27.847 19.111,27.899L20.563,29.935L19.449,29.935L18.123,28.06L18.108,28.06L16.936,28.06L16.936,29.935L15.999,29.935L15.999,24.556ZM25.03,25.432L23.324,25.432L23.324,24.556L27.689,24.556L27.689,25.432L25.983,25.432L25.983,29.935L25.03,29.935L25.03,25.432ZM30.841,24.556L31.716,24.556L34.591,28.275L34.591,24.556L35.528,24.556L35.528,29.935L34.738,29.935L31.778,26.108L31.778,29.935L30.841,29.935L30.841,24.556ZM39.065,24.556L43.046,24.556L43.046,25.409L40.002,25.409L40.002,26.792L42.699,26.792L42.699,27.645L40.002,27.645L40.002,29.082L43.084,29.082L43.084,29.935L39.065,29.935L39.065,24.556ZM48.692,27.222C49.031,27.222 49.301,27.142 49.501,26.979C49.702,26.818 49.802,26.597 49.802,26.32L49.802,26.304C49.802,26.011 49.704,25.788 49.509,25.637C49.314,25.484 49.039,25.409 48.684,25.409L47.304,25.409L47.304,27.222L48.692,27.222ZM46.367,24.556L48.764,24.556C49.103,24.556 49.402,24.603 49.664,24.698C49.925,24.793 50.143,24.925 50.317,25.094C50.46,25.242 50.57,25.414 50.647,25.609C50.724,25.804 50.762,26.019 50.762,26.254L50.762,26.27C50.762,26.49 50.731,26.689 50.666,26.865C50.602,27.042 50.514,27.198 50.401,27.334C50.289,27.47 50.154,27.585 49.998,27.68C49.842,27.775 49.669,27.847 49.479,27.899L50.932,29.935L49.817,29.935L48.492,28.06L48.476,28.06L47.304,28.06L47.304,29.935L46.367,29.935L46.367,24.556ZM55.966,30.013C55.551,30.013 55.154,29.942 54.775,29.801C54.396,29.66 54.045,29.443 53.722,29.151L54.291,28.475C54.552,28.701 54.816,28.874 55.083,28.994C55.349,29.114 55.652,29.175 55.989,29.175C56.282,29.175 56.513,29.113 56.685,28.99C56.857,28.867 56.942,28.703 56.942,28.498L56.942,28.483C56.942,28.385 56.926,28.3 56.892,28.225C56.859,28.151 56.798,28.081 56.708,28.014C56.617,27.948 56.494,27.886 56.338,27.83C56.18,27.773 55.977,27.717 55.726,27.661C55.437,27.594 55.183,27.519 54.959,27.434C54.735,27.349 54.547,27.247 54.396,27.127C54.245,27.006 54.129,26.859 54.049,26.685C53.97,26.51 53.93,26.301 53.93,26.055L53.93,26.039C53.93,25.808 53.976,25.597 54.067,25.405C54.159,25.213 54.285,25.049 54.445,24.913C54.605,24.778 54.797,24.671 55.023,24.594C55.247,24.518 55.493,24.479 55.759,24.479C56.154,24.479 56.508,24.537 56.823,24.652C57.138,24.767 57.434,24.935 57.711,25.155L57.203,25.87C56.958,25.691 56.715,25.554 56.474,25.459C56.233,25.364 55.989,25.317 55.744,25.317C55.467,25.317 55.252,25.378 55.098,25.501C54.944,25.624 54.867,25.775 54.867,25.954L54.867,25.97C54.867,26.072 54.885,26.163 54.921,26.243C54.957,26.322 55.023,26.394 55.117,26.458C55.213,26.522 55.344,26.582 55.51,26.638C55.678,26.695 55.89,26.754 56.147,26.815C56.429,26.887 56.68,26.966 56.898,27.053C57.115,27.141 57.297,27.247 57.44,27.372C57.584,27.498 57.694,27.644 57.768,27.811C57.843,27.977 57.88,28.17 57.88,28.391L57.88,28.406C57.88,28.657 57.833,28.882 57.739,29.082C57.644,29.282 57.514,29.451 57.346,29.589C57.179,29.728 56.977,29.833 56.743,29.905C56.507,29.976 56.248,30.012 55.966,30.012L55.966,30.013ZM60.717,30.658C61.189,30.565 61.406,30.325 61.37,29.935L60.978,29.935L60.978,28.882L62.001,28.882L62.001,29.774C62.001,30.204 61.901,30.517 61.701,30.711C61.501,30.906 61.207,31.019 60.817,31.05L60.717,30.658ZM67.674,24.556L68.611,24.556L68.611,29.082L71.439,29.082L71.439,29.935L67.674,29.935L67.674,24.556ZM74.584,24.556L75.521,24.556L75.521,29.082L78.349,29.082L78.349,29.935L74.584,29.935L74.584,24.556ZM83.999,30.029C83.605,30.028 83.241,29.956 82.908,29.812C82.574,29.669 82.285,29.473 82.04,29.225C81.796,28.976 81.604,28.683 81.464,28.345C81.324,28.006 81.255,27.645 81.255,27.261L81.255,27.246C81.255,26.861 81.324,26.502 81.46,26.166C81.597,25.83 81.79,25.536 82.036,25.282C82.284,25.029 82.577,24.829 82.915,24.683C83.254,24.537 83.627,24.464 84.037,24.464C84.283,24.464 84.507,24.484 84.709,24.525C84.912,24.566 85.098,24.624 85.267,24.698C85.436,24.772 85.592,24.861 85.736,24.963C85.879,25.066 86.015,25.179 86.143,25.301L85.536,26.001C85.321,25.801 85.093,25.639 84.852,25.517C84.611,25.394 84.337,25.332 84.029,25.332C83.773,25.332 83.537,25.382 83.319,25.482C83.101,25.582 82.913,25.718 82.754,25.889C82.595,26.061 82.472,26.262 82.385,26.492C82.298,26.723 82.254,26.969 82.254,27.23L82.254,27.246C82.254,27.507 82.298,27.754 82.385,27.987C82.472,28.22 82.595,28.424 82.754,28.598C82.913,28.772 83.101,28.909 83.319,29.009C83.537,29.109 83.773,29.159 84.029,29.159C84.357,29.159 84.639,29.096 84.875,28.971C85.111,28.846 85.344,28.675 85.574,28.46L86.181,29.075C86.043,29.223 85.898,29.355 85.747,29.471C85.596,29.586 85.433,29.686 85.259,29.77C85.085,29.854 84.894,29.919 84.687,29.962C84.479,30.006 84.25,30.028 83.999,30.028L83.999,30.029Z" style="fill:rgb(12,13,14);"/>
            <rect x="0.218" y="22.025" width="85.85" height="0.579" style="fill:rgb(255,94,20);"/>
            <path d="M12.632,16.382C13.156,16.382 13.573,16.257 13.881,16.006C14.191,15.757 14.345,15.418 14.345,14.989L14.345,14.965C14.345,14.513 14.195,14.169 13.893,13.936C13.592,13.701 13.168,13.584 12.62,13.584L10.493,13.584L10.493,16.382L12.632,16.382ZM9.047,12.268L12.745,12.268C13.266,12.268 13.729,12.341 14.132,12.488C14.535,12.634 14.871,12.837 15.139,13.098C15.36,13.327 15.531,13.592 15.649,13.892C15.768,14.193 15.827,14.525 15.827,14.888L15.827,14.912C15.827,15.252 15.777,15.558 15.679,15.831C15.58,16.103 15.444,16.344 15.27,16.554C15.096,16.763 14.888,16.941 14.648,17.087C14.407,17.233 14.14,17.346 13.847,17.425L16.088,20.566L14.369,20.566L12.324,17.674L12.3,17.674L10.493,17.674L10.493,20.566L9.047,20.566L9.047,12.268Z" style="fill:rgb(42,42,42);"/>
        </g>
    </g>
</svg>
