<svg width="219" height="34" viewBox="0 0 219 34" fill="none" xmlns="http://www.w3.org/2000/svg">
<path d="M1.17188 8.10938V27H4.95703V19.4297H11.2734V27H15.0586V8.10938H11.2734V15.668H4.95703V8.10938H1.17188ZM26.2969 7.95703C23.6602 7.95703 21.3984 8.90625 19.5234 10.7812C17.6484 12.6797 16.7109 14.9414 16.7109 17.5664C16.7109 20.2148 17.6484 22.4648 19.5234 24.3398C21.3867 26.1914 23.6484 27.1289 26.2969 27.1289C28.9336 27.1289 31.1953 26.2031 33.0703 24.3398C34.9453 22.4766 35.8945 20.2148 35.8945 17.5664C35.8945 14.9297 34.9453 12.668 33.0703 10.7812C31.1836 8.90625 28.9219 7.95703 26.2969 7.95703ZM26.2852 11.7891C27.8672 11.7891 29.2148 12.3516 30.3398 13.4766C31.4766 14.6133 32.0391 15.9727 32.0391 17.5547C32.0391 19.1484 31.4766 20.4961 30.3398 21.6211C29.2148 22.7344 27.8555 23.2969 26.2852 23.2969C24.6914 23.2969 23.3438 22.7344 22.2188 21.6211C21.0938 20.4961 20.5312 19.1367 20.5312 17.5547C20.5312 15.9844 21.0938 14.625 22.2188 13.4883C23.332 12.3633 24.6914 11.7891 26.2852 11.7891ZM34.9922 8.10938V11.8711H39.6445V27H43.4531V11.8711H48.0938V8.10938H34.9922ZM64.8516 12.9492L68.625 12.1523C68.1094 9.90234 66.0469 7.91016 63.375 7.91016C61.875 7.91016 60.1992 8.88281 59.4609 9.62109C58.6875 10.3945 58.0195 11.3438 58.0195 12.8555C58.0547 14.0391 58.6875 15.6094 59.2383 16.3359C59.0742 16.4531 58.9688 16.5469 58.9219 16.5938C58.3359 17.1562 57.7734 17.7773 57.2461 18.457C56.707 19.1367 56.4375 20.0273 56.4141 21.1172C56.4141 22.8047 57.0117 24.2344 58.2305 25.4062C59.4492 26.6016 60.9375 27.1875 62.6953 27.1875C63.4102 27.1875 64.2188 27.082 65.1094 26.8477C66.457 26.5078 67.2773 26.0273 68.0391 25.1602C68.2031 25.3125 68.3906 25.4531 68.6016 25.582C69.7031 26.2383 71.0859 27.0586 72.9375 27.0586L72.9492 23.543C71.9297 23.5898 70.8516 22.8398 70.1836 22.4062C70.8047 21.0117 70.9102 19.4648 70.9688 17.5195L67.418 17.5664C67.3711 18.5508 67.3945 19.3359 67.2305 20.1211C66.9727 19.9102 66.6328 19.5586 66.1875 19.0781C65.2383 18.0586 64.4062 17.2969 63.7148 16.3594C62.8594 15.2227 62.9766 15.375 62.3086 14.0742C62.0039 13.4883 61.8633 13.0898 61.9102 12.8789C62.0508 12.1289 62.5312 11.7539 63.375 11.7539C64.1367 11.7539 64.6992 12.3047 64.8516 12.9492ZM62.707 23.4727C61.8398 23.4727 61.2188 23.2969 60.8555 22.9336C60.4688 22.5938 60.0234 21.8789 60.0234 21.1758C60 20.5195 60.1523 20.0273 60.4922 19.6875C60.8203 19.3594 61.1602 19.0664 61.5117 18.8086C62.0273 19.6758 62.707 20.4844 63.5391 21.2344C64.3711 21.9844 64.8984 22.4531 65.1211 22.6406V22.6289C64.8281 23.0625 63.4219 23.4727 62.707 23.4727ZM97.6406 24.3516L94.9336 21.6445C93.8086 22.7695 92.4492 23.332 90.8555 23.332C89.2734 23.332 87.9258 22.7695 86.8125 21.6562C85.6875 20.5312 85.125 19.1719 85.125 17.5898C85.125 16.0195 85.6875 14.6602 86.8125 13.5234C87.9141 12.3984 89.2734 11.8359 90.8672 11.8359C92.4375 11.8359 93.7852 12.3984 94.9336 13.5234L97.6406 10.8164C96.0703 9.30469 93.75 8.01562 90.8438 8.01562L90.8555 7.95703C88.2305 7.95703 85.9688 8.90625 84.0938 10.7812C82.2188 12.6797 81.2812 14.9414 81.2812 17.5664C81.2812 20.2148 82.2188 22.4648 84.0938 24.3398C85.957 26.1914 88.207 27.1289 90.8438 27.1289C93.7969 27.1289 96.0938 25.8867 97.6406 24.3516ZM106.734 7.95703C104.098 7.95703 101.836 8.90625 99.9609 10.7812C98.0859 12.6797 97.1484 14.9414 97.1484 17.5664C97.1484 20.2148 98.0859 22.4648 99.9609 24.3398C101.824 26.1914 104.086 27.1289 106.734 27.1289C109.371 27.1289 111.633 26.2031 113.508 24.3398C115.383 22.4766 116.332 20.2148 116.332 17.5664C116.332 14.9297 115.383 12.668 113.508 10.7812C111.621 8.90625 109.359 7.95703 106.734 7.95703ZM106.723 11.7891C108.305 11.7891 109.652 12.3516 110.777 13.4766C111.914 14.6133 112.477 15.9727 112.477 17.5547C112.477 19.1484 111.914 20.4961 110.777 21.6211C109.652 22.7344 108.293 23.2969 106.723 23.2969C105.129 23.2969 103.781 22.7344 102.656 21.6211C101.531 20.4961 100.969 19.1367 100.969 17.5547C100.969 15.9844 101.531 14.625 102.656 13.4883C103.77 12.3633 105.129 11.7891 106.723 11.7891ZM126.844 7.95703C124.207 7.95703 121.945 8.90625 120.07 10.7812C118.195 12.6797 117.258 14.9414 117.258 17.5664C117.258 20.2148 118.195 22.4648 120.07 24.3398C121.934 26.1914 124.195 27.1289 126.844 27.1289C129.48 27.1289 131.742 26.2031 133.617 24.3398C135.492 22.4766 136.441 20.2148 136.441 17.5664C136.441 14.9297 135.492 12.668 133.617 10.7812C131.73 8.90625 129.469 7.95703 126.844 7.95703ZM126.832 11.7891C128.414 11.7891 129.762 12.3516 130.887 13.4766C132.023 14.6133 132.586 15.9727 132.586 17.5547C132.586 19.1484 132.023 20.4961 130.887 21.6211C129.762 22.7344 128.402 23.2969 126.832 23.2969C125.238 23.2969 123.891 22.7344 122.766 21.6211C121.641 20.4961 121.078 19.1367 121.078 17.5547C121.078 15.9844 121.641 14.625 122.766 13.4883C123.879 12.3633 125.238 11.7891 126.832 11.7891ZM138.07 8.10938V27H149.461V23.2266H141.867V8.10938H138.07ZM173.789 24.3516L171.082 21.6445C169.957 22.7695 168.598 23.332 167.004 23.332C165.422 23.332 164.074 22.7695 162.961 21.6562C161.836 20.5312 161.273 19.1719 161.273 17.5898C161.273 16.0195 161.836 14.6602 162.961 13.5234C164.062 12.3984 165.422 11.8359 167.016 11.8359C168.586 11.8359 169.934 12.3984 171.082 13.5234L173.789 10.8164C172.219 9.30469 169.898 8.01562 166.992 8.01562L167.004 7.95703C164.379 7.95703 162.117 8.90625 160.242 10.7812C158.367 12.6797 157.43 14.9414 157.43 17.5664C157.43 20.2148 158.367 22.4648 160.242 24.3398C162.105 26.1914 164.355 27.1289 166.992 27.1289C169.945 27.1289 172.242 25.8867 173.789 24.3516ZM174.375 27H178.477L179.754 24.1289H186.223L187.5 27H191.613L182.988 7.72266L174.375 27ZM181.254 20.7773L183 16.7812L184.723 20.7773H181.254ZM193.266 8.0625V27.0234H197.062V19.4414H202.758V15.6562H197.062V11.8477H204.656V8.0625H193.266ZM206.297 8.0625V27.0234H217.688V23.25H210.094V19.4414H215.789V15.6562H210.094V11.8477H217.688V8.0625H206.297Z" fill="black"/>
</svg>
