<?xml version="1.0" encoding="UTF-8"?>
<svg width="24px" height="24px" viewBox="0 0 24 24" version="1.1" xmlns="http://www.w3.org/2000/svg" xmlns:xlink="http://www.w3.org/1999/xlink">
    <!-- Generator: Sketch 61.2 (89653) - https://sketch.com -->
    <title>Bizday_Favicon_16</title>
    <desc>Created with Sketch.</desc>
    <defs>
        <circle id="path-1" cx="8" cy="8" r="8"></circle>
        <filter x="-43.8%" y="-31.2%" width="187.5%" height="187.5%" filterUnits="objectBoundingBox" id="filter-2">
            <feOffset dx="0" dy="2" in="SourceAlpha" result="shadowOffsetOuter1"></feOffset>
            <feGaussianBlur stdDeviation="2" in="shadowOffsetOuter1" result="shadowBlurOuter1"></feGaussianBlur>
            <feColorMatrix values="0 0 0 0 0   0 0 0 0 0   0 0 0 0 0  0 0 0 0.107271635 0" type="matrix" in="shadowBlurOuter1"></feColorMatrix>
        </filter>
    </defs>
    <g id="Page-1" stroke="none" stroke-width="1" fill="none" fill-rule="evenodd">
        <g id="Bizday_Favicon_16" transform="translate(4.000000, 2.000000)">
            <g id="Oval-Copy-6">
                <use fill="black" fill-opacity="1" filter="url(#filter-2)" xlink:href="#path-1"></use>
                <use fill="#FFFFFF" fill-rule="evenodd" xlink:href="#path-1"></use>
            </g>
            <g id="B." transform="translate(5.261745, 3.651007)" fill-rule="nonzero">
                <path d="M2.29914747,8.47625612 C3.00303525,8.47625612 3.48983614,8.24436786 3.75955015,7.78059133 C4.02926416,7.3168148 4.16412117,6.63430679 4.16412117,5.7330673 C4.16412117,5.1804825 4.09175887,4.73644114 3.94703428,4.40094323 C3.80230969,4.06544531 3.55233085,3.85164762 3.19709777,3.75955015 C3.77599613,3.60166878 4.06544531,3.11815708 4.06544531,2.30901506 L4.06544531,2.30901506 L4.06544531,1.9340468 C4.06544531,1.24989419 3.92565451,0.756514904 3.64607292,0.453908942 C3.36649132,0.151302981 2.91751617,6.5989095e-15 2.29914747,6.5989095e-15 L2.29914747,6.5989095e-15 L2.6395638e-14,6.5989095e-15 L2.6395638e-14,8.47625612 L2.29914747,8.47625612 Z M2.0031199,3.18723018 L1.6577544,3.18723018 L1.6577544,1.30252131 L2.01298748,1.30252131 C2.25638793,1.30252131 2.37808816,1.44066751 2.37808816,1.71695991 L2.37808816,1.71695991 L2.37808816,2.56557228 C2.37808816,2.762924 2.35177459,2.91587158 2.29914747,3.02441502 C2.24652035,3.13295846 2.14784449,3.18723018 2.0031199,3.18723018 L2.0031199,3.18723018 Z M1.82550336,6.98625068 L1.6577544,6.97638309 L1.6577544,4.51935425 L1.97351714,4.51935425 C2.16429046,4.51935425 2.29750287,4.58513816 2.37315436,4.71670597 C2.44880585,4.84827378 2.4866316,5.0423363 2.4866316,5.29889352 L2.4866316,5.29889352 L2.4866316,6.35472519 C2.4866316,6.77574219 2.26625552,6.98625068 1.82550336,6.98625068 L1.82550336,6.98625068 Z" id="B" fill="#2C3E50"></path>
                <polygon id="." fill="#F5442E" points="6.39967753 8.47625612 6.39967753 7.03558861 4.67285003 7.03558861 4.67285003 8.47625612"></polygon>
            </g>
        </g>
    </g>
</svg>