<?xml version="1.0" standalone="no"?>
<!DOCTYPE svg PUBLIC "-//W3C//DTD SVG 20010904//EN"
 "http://www.w3.org/TR/2001/REC-SVG-20010904/DTD/svg10.dtd">
<svg version="1.0" xmlns="http://www.w3.org/2000/svg"
 width="700.000000pt" height="700.000000pt" viewBox="0 0 700.000000 700.000000"
 preserveAspectRatio="xMidYMid meet">
<metadata>
Created by potrace 1.11, written by Peter Selinger 2001-2013
</metadata>
<g transform="translate(0.000000,700.000000) scale(0.100000,-0.100000)"
fill="#000000" stroke="none">
<path d="M3309 6646 c-2 -2 -38 -7 -79 -10 -41 -3 -84 -8 -96 -10 -12 -2 -45
-7 -75 -11 -30 -4 -56 -8 -59 -10 -3 -2 -26 -6 -50 -10 -25 -3 -53 -8 -62 -11
-9 -3 -25 -7 -35 -9 -215 -47 -525 -169 -748 -295 -85 -48 -265 -172 -365
-253 -137 -111 -400 -372 -400 -397 0 -5 -4 -10 -8 -12 -21 -8 -191 -251 -267
-383 -32 -55 -127 -244 -131 -260 -1 -5 -15 -39 -29 -75 -53 -125 -110 -307
-130 -409 -2 -11 -6 -25 -9 -29 -2 -4 -7 -26 -10 -48 -4 -22 -9 -51 -11 -64
-3 -14 -8 -43 -11 -65 -3 -22 -8 -47 -10 -55 -3 -8 -8 -51 -11 -95 -4 -78 -9
-135 -13 -145 -9 -32 9 -429 24 -506 2 -12 7 -45 11 -75 7 -59 39 -211 59
-284 24 -90 69 -228 86 -270 5 -11 29 -67 55 -125 26 -58 48 -113 48 -122 1
-9 4 -15 8 -12 4 2 12 -8 18 -24 5 -15 24 -51 41 -80 17 -30 27 -58 24 -64 -4
-7 -2 -8 4 -4 7 4 17 -4 24 -21 7 -15 15 -30 19 -33 3 -3 12 -16 19 -29 7 -13
32 -51 56 -84 24 -32 41 -64 37 -70 -3 -5 -2 -7 4 -4 6 4 25 -15 44 -41 18
-25 40 -54 49 -62 8 -9 32 -37 54 -63 69 -84 294 -301 358 -345 13 -9 28 -21
33 -27 47 -52 369 -255 478 -301 20 -9 37 -20 37 -26 0 -5 4 -7 9 -3 5 3 15 0
23 -7 7 -7 20 -14 28 -16 8 -1 24 -7 35 -12 27 -12 99 -43 105 -45 20 -5 87
-29 95 -34 6 -3 15 -6 20 -8 6 -1 57 -16 115 -33 58 -16 116 -32 130 -35 14
-3 36 -7 50 -11 14 -3 34 -7 45 -9 11 -2 58 -11 105 -19 138 -25 232 -31 460
-30 254 1 389 7 384 16 -2 3 20 9 48 13 106 14 276 55 418 101 169 54 212 72
388 158 52 25 99 43 105 39 6 -3 7 -1 3 5 -8 14 30 36 46 26 6 -4 8 -3 5 2 -3
6 15 23 41 39 123 75 283 187 328 230 6 5 35 30 64 55 127 108 340 340 429
468 12 18 27 29 33 26 7 -4 8 -2 4 5 -5 7 3 26 18 46 14 18 26 36 26 39 0 2
22 40 49 84 27 43 65 109 83 145 19 37 38 64 43 60 4 -5 5 -3 2 3 -4 6 2 29
12 50 45 93 116 279 122 319 0 6 6 19 11 29 11 20 64 225 73 281 3 17 10 53
15 80 16 88 33 238 34 307 1 21 5 38 9 38 5 0 6 4 3 8 -3 5 -7 96 -10 203 -3
107 -7 205 -10 219 -3 14 -8 45 -11 70 -26 223 -109 530 -191 708 -13 29 -24
55 -24 58 0 6 -86 181 -100 204 -5 8 -34 56 -64 107 -69 116 -179 274 -223
321 -7 7 -29 33 -50 59 -95 117 -335 338 -469 433 -292 207 -591 351 -914 440
-58 16 -121 32 -140 35 -19 3 -51 10 -70 15 -19 4 -75 14 -125 20 -49 6 -101
14 -115 17 -31 6 -475 14 -481 9z"/>
<path d="M5786 2078 c3 -5 10 -6 15 -3 13 9 11 12 -6 12 -8 0 -12 -4 -9 -9z"/>
<path d="M1590 1726 c0 -2 7 -7 16 -10 8 -3 12 -2 9 4 -6 10 -25 14 -25 6z"/>
</g>
</svg>
