<?xml version="1.0" encoding="UTF-8"?>
<svg width="214px" height="62px" viewBox="0 0 214 62" version="1.1" xmlns="http://www.w3.org/2000/svg" xmlns:xlink="http://www.w3.org/1999/xlink">
    <!-- Generator: Sketch 61.2 (89653) - https://sketch.com -->
    <title>Bizday_Logo_Color_Black</title>
    <desc>Created with Sketch.</desc>
    <g id="Page-1" stroke="none" stroke-width="1" fill="none" fill-rule="evenodd">
        <g id="Bizday_Logo_Color_Black" fill-rule="nonzero">
            <path d="M13.98,54.18 C18.26,54.18 21.22,52.77 22.86,49.95 C24.5,47.13 25.32,42.98 25.32,37.5 C25.32,34.14 24.88,31.44 24,29.4 C23.12,27.36 21.6,26.06 19.44,25.5 C22.96,24.54 24.72,21.6 24.72,16.68 L24.72,16.68 L24.72,14.4 C24.72,10.24 23.87,7.24 22.17,5.4 C20.47,3.56 17.74,2.64 13.98,2.64 L13.98,2.64 L0,2.64 L0,54.18 L13.98,54.18 Z M12.18,22.02 L10.08,22.02 L10.08,10.56 L12.24,10.56 C13.72,10.56 14.46,11.4 14.46,13.08 L14.46,13.08 L14.46,18.24 C14.46,19.44 14.3,20.37 13.98,21.03 C13.66,21.69 13.06,22.02 12.18,22.02 L12.18,22.02 Z M11.1,45.12 L10.08,45.06 L10.08,30.12 L12,30.12 C13.16,30.12 13.97,30.52 14.43,31.32 C14.89,32.12 15.12,33.3 15.12,34.86 L15.12,34.86 L15.12,41.28 C15.12,43.84 13.78,45.12 11.1,45.12 L11.1,45.12 Z M39.3333333,7.32 L39.3333333,0 L28.8333333,0 L28.8333333,7.32 L39.3333333,7.32 Z M39.3333333,54.18 L39.3333333,10.26 L28.8333333,10.26 L28.8333333,54.18 L39.3333333,54.18 Z M64.4466667,54.18 L64.4466667,46.32 L54.0066667,46.32 L64.3266667,17.4 L64.3266667,10.26 L43.0266667,10.26 L43.0266667,18.54 L53.4666667,18.54 L42.5466667,47.76 L42.5466667,54.18 L64.4466667,54.18 Z M81.34,54.18 C85.5,54.18 88.48,52.9 90.28,50.34 C92.08,47.78 92.96,43.96 92.92,38.88 L92.92,38.88 L92.8,14.76 C92.76,10.76 91.82,7.74 89.98,5.7 C88.14,3.66 85.38,2.64 81.7,2.64 L81.7,2.64 L67.48,2.64 L67.48,54.18 L81.34,54.18 Z M79.66,45.06 L77.86,45.06 L77.86,11.64 L79,11.64 C80,11.64 80.74,11.74 81.22,11.94 C81.7,12.14 82.03,12.53 82.21,13.11 C82.39,13.69 82.48,14.56 82.48,15.72 L82.48,15.72 L82.48,42.3 C82.48,44.14 81.54,45.06 79.66,45.06 L79.66,45.06 Z M105.193333,54.66 C106.753333,54.66 108.103333,54.16 109.243333,53.16 C110.383333,52.16 111.213333,50.76 111.733333,48.96 L111.733333,48.96 L111.733333,54.18 L122.173333,54.18 L122.173333,20.7 C122.173333,17.22 121.033333,14.53 118.753333,12.63 C116.473333,10.73 113.513333,9.78 109.873333,9.78 C105.313333,9.78 102.023333,10.7 100.003333,12.54 C97.9833334,14.38 96.9733334,17.46 96.9733334,21.78 L96.9733334,21.78 L96.9733334,23.22 L107.173333,23.22 L107.173333,20.58 C107.173333,19.7 107.383333,19 107.803333,18.48 C108.223333,17.96 108.713333,17.7 109.273333,17.7 C109.913333,17.7 110.463333,18.01 110.923333,18.63 C111.383333,19.25 111.613333,20.14 111.613333,21.3 L111.613333,21.3 L111.613333,25.8 L108.733333,26.76 C105.453333,27.8 103.013333,28.75 101.413333,29.61 C99.8133334,30.47 98.5633334,31.82 97.6633334,33.66 C96.7633334,35.5 96.3133334,38.14 96.3133334,41.58 C96.3133334,45.78 96.9433334,49.01 98.2033334,51.27 C99.4633334,53.53 101.793333,54.66 105.193333,54.66 Z M109.333333,46.5 C107.773333,46.5 106.993333,45.2 106.993333,42.6 L106.993333,42.6 L106.993333,36.96 C106.993333,35.32 107.363333,34.04 108.103333,33.12 C108.843333,32.2 109.993333,31.44 111.553333,30.84 L111.553333,30.84 L111.553333,43.08 C111.553333,44.04 111.383333,44.85 111.043333,45.51 C110.703333,46.17 110.133333,46.5 109.333333,46.5 Z M137.506667,61.5 C139.346667,61.5 140.696667,61.09 141.556667,60.27 C142.416667,59.45 142.986667,58.18 143.266667,56.46 L143.266667,56.46 L151.426667,10.26 L141.346667,10.26 L139.006667,31.68 L137.866667,42.6 L136.906667,31.68 L134.926667,10.26 L124.906667,10.26 L131.746667,53.28 C131.786667,53.44 131.806667,53.66 131.806667,53.94 C131.806667,54.54 131.446667,54.84 130.726667,54.84 L130.726667,54.84 L125.686667,54.84 L125.686667,61.5 L137.506667,61.5 Z M184.713333,54.18 L184.713333,45.42 L174.093333,45.42 L174.093333,2.64 L163.773333,2.64 L163.773333,54.18 L184.713333,54.18 Z M196.566667,54.18 L197.166667,45.84 L203.406667,45.84 L204.126667,54.18 L213.906667,54.18 L208.986667,2.64 L191.526667,2.64 L186.546667,54.18 L196.566667,54.18 Z M202.626667,37.62 L197.946667,37.62 L199.866667,11.4 L200.346667,11.4 L202.626667,37.62 Z" id="BizDay.LA-Copy" fill="#020122"></path>
            <polygon id=".-copy-2" fill="#F5442E" points="159.9 53.94 159.9 45.18 149.4 45.18 149.4 53.94"></polygon>
        </g>
    </g>
</svg>